<svg xmlns="http://www.w3.org/2000/svg" xmlns:xlink="http://www.w3.org/1999/xlink" version="1.1" width="256" height="256" viewBox="0 0 256 256" xml:space="preserve">
<desc>Created with Fabric.js 1.7.22</desc>
<defs>
</defs>
<g transform="translate(128 128) scale(0.72 0.72)" style="">
	<g style="stroke: none; stroke-width: 0; stroke-dasharray: none; stroke-linecap: butt; stroke-linejoin: miter; stroke-miterlimit: 10; fill: none; fill-rule: nonzero; opacity: 1;" transform="translate(-175.05 -175.05000000000004) scale(3.89 3.89)" >
	<rect x="55.73" y="76.32" rx="0" ry="0" width="31.92" height="2.65" style="stroke: none; stroke-width: 1; stroke-dasharray: none; stroke-linecap: butt; stroke-linejoin: miter; stroke-miterlimit: 10; fill: rgb(49,139,54); fill-rule: nonzero; opacity: 1;" transform=" matrix(1 0 0 1 0 0) "/>
	<rect x="55.73" y="73.67" rx="0" ry="0" width="31.92" height="2.65" style="stroke: none; stroke-width: 1; stroke-dasharray: none; stroke-linecap: butt; stroke-linejoin: miter; stroke-miterlimit: 10; fill: rgb(59,158,65); fill-rule: nonzero; opacity: 1;" transform=" matrix(1 0 0 1 0 0) "/>
	<rect x="55.73" y="71.17" rx="0" ry="0" width="31.92" height="2.65" style="stroke: none; stroke-width: 1; stroke-dasharray: none; stroke-linecap: butt; stroke-linejoin: miter; stroke-miterlimit: 10; fill: rgb(49,139,54); fill-rule: nonzero; opacity: 1;" transform=" matrix(1 0 0 1 0 0) "/>
	<rect x="55.73" y="68.52" rx="0" ry="0" width="31.92" height="2.65" style="stroke: none; stroke-width: 1; stroke-dasharray: none; stroke-linecap: butt; stroke-linejoin: miter; stroke-miterlimit: 10; fill: rgb(59,158,65); fill-rule: nonzero; opacity: 1;" transform=" matrix(1 0 0 1 0 0) "/>
	<rect x="66.96" y="68.52" rx="0" ry="0" width="9.46" height="10.45" style="stroke: none; stroke-width: 1; stroke-dasharray: none; stroke-linecap: butt; stroke-linejoin: miter; stroke-miterlimit: 10; fill: rgb(182,195,187); fill-rule: nonzero; opacity: 1;" transform=" matrix(1 0 0 1 0 0) "/>
	<polygon points="74.83,68.52 74.83,77.9 66.96,77.9 66.96,78.97 76.42,78.97 76.42,68.52 " style="stroke: none; stroke-width: 1; stroke-dasharray: none; stroke-linecap: butt; stroke-linejoin: miter; stroke-miterlimit: 10; fill: rgb(151,166,157); fill-rule: nonzero; opacity: 1;" transform="  matrix(1 0 0 1 0 0) "/>
	<rect x="58.08" y="65.88" rx="0" ry="0" width="31.92" height="2.65" style="stroke: none; stroke-width: 1; stroke-dasharray: none; stroke-linecap: butt; stroke-linejoin: miter; stroke-miterlimit: 10; fill: rgb(49,139,54); fill-rule: nonzero; opacity: 1;" transform=" matrix(1 0 0 1 0 0) "/>
	<rect x="58.08" y="63.23" rx="0" ry="0" width="31.92" height="2.65" style="stroke: none; stroke-width: 1; stroke-dasharray: none; stroke-linecap: butt; stroke-linejoin: miter; stroke-miterlimit: 10; fill: rgb(59,158,65); fill-rule: nonzero; opacity: 1;" transform=" matrix(1 0 0 1 0 0) "/>
	<rect x="58.08" y="60.73" rx="0" ry="0" width="31.92" height="2.65" style="stroke: none; stroke-width: 1; stroke-dasharray: none; stroke-linecap: butt; stroke-linejoin: miter; stroke-miterlimit: 10; fill: rgb(49,139,54); fill-rule: nonzero; opacity: 1;" transform=" matrix(1 0 0 1 0 0) "/>
	<rect x="58.08" y="58.08" rx="0" ry="0" width="31.92" height="2.65" style="stroke: none; stroke-width: 1; stroke-dasharray: none; stroke-linecap: butt; stroke-linejoin: miter; stroke-miterlimit: 10; fill: rgb(59,158,65); fill-rule: nonzero; opacity: 1;" transform=" matrix(1 0 0 1 0 0) "/>
	<rect x="69.31" y="58.08" rx="0" ry="0" width="9.46" height="10.45" style="stroke: none; stroke-width: 1; stroke-dasharray: none; stroke-linecap: butt; stroke-linejoin: miter; stroke-miterlimit: 10; fill: rgb(182,195,187); fill-rule: nonzero; opacity: 1;" transform=" matrix(1 0 0 1 0 0) "/>
	<polygon points="77.18,58.08 77.18,67.47 69.31,67.47 69.31,68.53 78.77,68.53 78.77,58.08 " style="stroke: none; stroke-width: 1; stroke-dasharray: none; stroke-linecap: butt; stroke-linejoin: miter; stroke-miterlimit: 10; fill: rgb(151,166,157); fill-rule: nonzero; opacity: 1;" transform="  matrix(1 0 0 1 0 0) "/>
	<rect x="55.24" y="55.43" rx="0" ry="0" width="31.92" height="2.65" style="stroke: none; stroke-width: 1; stroke-dasharray: none; stroke-linecap: butt; stroke-linejoin: miter; stroke-miterlimit: 10; fill: rgb(49,139,54); fill-rule: nonzero; opacity: 1;" transform=" matrix(1 0 0 1 0 0) "/>
	<rect x="55.24" y="52.77" rx="0" ry="0" width="31.92" height="2.65" style="stroke: none; stroke-width: 1; stroke-dasharray: none; stroke-linecap: butt; stroke-linejoin: miter; stroke-miterlimit: 10; fill: rgb(59,158,65); fill-rule: nonzero; opacity: 1;" transform=" matrix(1 0 0 1 0 0) "/>
	<rect x="55.24" y="50.28" rx="0" ry="0" width="31.92" height="2.65" style="stroke: none; stroke-width: 1; stroke-dasharray: none; stroke-linecap: butt; stroke-linejoin: miter; stroke-miterlimit: 10; fill: rgb(49,139,54); fill-rule: nonzero; opacity: 1;" transform=" matrix(1 0 0 1 0 0) "/>
	<rect x="55.24" y="47.63" rx="0" ry="0" width="31.92" height="2.65" style="stroke: none; stroke-width: 1; stroke-dasharray: none; stroke-linecap: butt; stroke-linejoin: miter; stroke-miterlimit: 10; fill: rgb(59,158,65); fill-rule: nonzero; opacity: 1;" transform=" matrix(1 0 0 1 0 0) "/>
	<rect x="66.47" y="47.63" rx="0" ry="0" width="9.46" height="10.45" style="stroke: none; stroke-width: 1; stroke-dasharray: none; stroke-linecap: butt; stroke-linejoin: miter; stroke-miterlimit: 10; fill: rgb(182,195,187); fill-rule: nonzero; opacity: 1;" transform=" matrix(1 0 0 1 0 0) "/>
	<polygon points="74.34,47.63 74.34,57.01 66.47,57.01 66.47,58.08 75.94,58.08 75.94,47.63 " style="stroke: none; stroke-width: 1; stroke-dasharray: none; stroke-linecap: butt; stroke-linejoin: miter; stroke-miterlimit: 10; fill: rgb(151,166,157); fill-rule: nonzero; opacity: 1;" transform="  matrix(1 0 0 1 0 0) "/>
	<path d="M 31.171 78.909 h 27.658 c 7.525 -1.223 12.543 -4.63 12.543 -14.122 c 0 -11.893 -7.874 -28.955 -18.692 -34.815 l 5.286 -17.939 c -8.347 -4.095 -16.331 6.108 -25.932 0 l 5.286 17.939 c -10.819 5.86 -18.692 22.922 -18.692 34.815 C 18.628 74.279 23.646 77.686 31.171 78.909 z" style="stroke: none; stroke-width: 1; stroke-dasharray: none; stroke-linecap: butt; stroke-linejoin: miter; stroke-miterlimit: 10; fill: rgb(52,57,54); fill-rule: nonzero; opacity: 1;" transform=" matrix(1 0 0 1 0 0) " stroke-linecap="round" />
	<path d="M 58.829 78.909 c 7.525 -1.223 12.543 -4.63 12.543 -14.122 c 0 -11.893 -7.874 -28.955 -18.692 -34.815 l 5.286 -17.939 c -1.951 -0.957 -3.882 -1.128 -5.818 -0.914 c 0.106 7.149 -0.918 13.614 -3.512 19.128 c 10.819 5.671 16.92 20.411 16.92 31.921 c 0 14.095 -11.807 14.33 -26.372 14.33 c -6.402 0 -12.269 -0.046 -16.837 -1.294 c 2.187 2.033 5.242 3.119 8.871 3.706 H 58.829 z" style="stroke: none; stroke-width: 1; stroke-dasharray: none; stroke-linecap: butt; stroke-linejoin: miter; stroke-miterlimit: 10; fill: rgb(46,50,47); fill-rule: nonzero; opacity: 1;" transform=" matrix(1 0 0 1 0 0) " stroke-linecap="round" />
	<path d="M 34.134 58.077 v -2.651 v -2.651 h -9.075 c 3.105 -0.218 6.205 -0.565 9.292 -1.078 l -0.434 -2.615 c -3.497 0.581 -7.011 0.95 -10.53 1.142 c 3.517 -0.509 7.028 -1.52 10.523 -3.06 l -1.069 -2.426 c -3.341 1.472 -6.699 2.426 -10.062 2.887 h -1.461 h -3.142 v 31.343 h 5.306 h 11.226 v -2.651 v -2.5 v -0.151 v -2.5 v -2.637 h 2.351 v -2.651 v -2.5 v -0.151 v -2.5 v -2.651 H 34.134 z" style="stroke: none; stroke-width: 1; stroke-dasharray: none; stroke-linecap: butt; stroke-linejoin: miter; stroke-miterlimit: 10; fill: rgb(46,50,47); fill-rule: nonzero; opacity: 1;" transform=" matrix(1 0 0 1 0 0) " stroke-linecap="round" />
	<path d="M 45 44.97 c -4.75 0 -8.601 3.851 -8.601 8.601 S 40.25 62.172 45 62.172 s 8.601 -3.851 8.601 -8.601 S 49.75 44.97 45 44.97 z" style="stroke: none; stroke-width: 1; stroke-dasharray: none; stroke-linecap: butt; stroke-linejoin: miter; stroke-miterlimit: 10; fill: rgb(84,92,86); fill-rule: nonzero; opacity: 1;" transform=" matrix(1 0 0 1 0 0) " stroke-linecap="round" />
	<path d="M 47.005 45.215 c 2.405 1.987 3.938 4.993 3.938 8.356 c 0 3.364 -1.533 6.369 -3.938 8.356 c 3.781 -0.905 6.596 -4.298 6.596 -8.356 C 53.601 49.513 50.786 46.119 47.005 45.215 z" style="stroke: none; stroke-width: 1; stroke-dasharray: none; stroke-linecap: butt; stroke-linejoin: miter; stroke-miterlimit: 10; fill: rgb(72,80,75); fill-rule: nonzero; opacity: 1;" transform=" matrix(1 0 0 1 0 0) " stroke-linecap="round" />
	<path d="M 53.36 31.11 c -5.696 -0.687 -11.331 -0.68 -16.905 -0.002 c -0.776 0.094 -1.462 -0.499 -1.462 -1.281 v 0 c 0 -0.659 0.493 -1.221 1.147 -1.296 c 5.779 -0.665 11.622 -0.672 17.531 0.001 c 0.655 0.075 1.15 0.637 1.15 1.297 v 0.001 C 54.82 30.61 54.135 31.203 53.36 31.11 z" style="stroke: none; stroke-width: 1; stroke-dasharray: none; stroke-linecap: butt; stroke-linejoin: miter; stroke-miterlimit: 10; fill: rgb(59,158,65); fill-rule: nonzero; opacity: 1;" transform=" matrix(1 0 0 1 0 0) " stroke-linecap="round" />
	<path d="M 16.176 50.613 c -5.257 0 -10.514 -1.149 -15.734 -3.449 l 1.069 -2.426 c 9.731 4.286 19.6 4.286 29.331 0 l 1.069 2.426 C 26.69 49.463 21.432 50.613 16.176 50.613 z" style="stroke: none; stroke-width: 1; stroke-dasharray: none; stroke-linecap: butt; stroke-linejoin: miter; stroke-miterlimit: 10; fill: rgb(59,158,65); fill-rule: nonzero; opacity: 1;" transform=" matrix(1 0 0 1 0 0) " stroke-linecap="round" />
	<path d="M 16.176 53.034 c -5.405 0 -10.809 -0.446 -16.176 -1.337 l 0.434 -2.615 c 10.445 1.736 21.037 1.736 31.483 0 l 0.434 2.615 C 26.985 52.588 21.58 53.034 16.176 53.034 z" style="stroke: none; stroke-width: 1; stroke-dasharray: none; stroke-linecap: butt; stroke-linejoin: miter; stroke-miterlimit: 10; fill: rgb(49,139,54); fill-rule: nonzero; opacity: 1;" transform=" matrix(1 0 0 1 0 0) " stroke-linecap="round" />
	<rect x="0.22" y="55.43" rx="0" ry="0" width="31.92" height="2.65" style="stroke: none; stroke-width: 1; stroke-dasharray: none; stroke-linecap: butt; stroke-linejoin: miter; stroke-miterlimit: 10; fill: rgb(49,139,54); fill-rule: nonzero; opacity: 1;" transform=" matrix(1 0 0 1 0 0) "/>
	<rect x="0.22" y="52.77" rx="0" ry="0" width="31.92" height="2.65" style="stroke: none; stroke-width: 1; stroke-dasharray: none; stroke-linecap: butt; stroke-linejoin: miter; stroke-miterlimit: 10; fill: rgb(59,158,65); fill-rule: nonzero; opacity: 1;" transform=" matrix(1 0 0 1 0 0) "/>
	<rect x="11.44" y="47.63" rx="0" ry="0" width="9.46" height="10.45" style="stroke: none; stroke-width: 1; stroke-dasharray: none; stroke-linecap: butt; stroke-linejoin: miter; stroke-miterlimit: 10; fill: rgb(182,195,187); fill-rule: nonzero; opacity: 1;" transform=" matrix(1 0 0 1 0 0) "/>
	<polygon points="19.32,47.63 19.32,57.01 11.44,57.01 11.44,58.08 20.91,58.08 20.91,47.63 " style="stroke: none; stroke-width: 1; stroke-dasharray: none; stroke-linecap: butt; stroke-linejoin: miter; stroke-miterlimit: 10; fill: rgb(151,166,157); fill-rule: nonzero; opacity: 1;" transform="  matrix(1 0 0 1 0 0) "/>
	<rect x="0.79" y="76.32" rx="0" ry="0" width="31.92" height="2.65" style="stroke: none; stroke-width: 1; stroke-dasharray: none; stroke-linecap: butt; stroke-linejoin: miter; stroke-miterlimit: 10; fill: rgb(49,139,54); fill-rule: nonzero; opacity: 1;" transform=" matrix(1 0 0 1 0 0) "/>
	<rect x="0.79" y="73.67" rx="0" ry="0" width="31.92" height="2.65" style="stroke: none; stroke-width: 1; stroke-dasharray: none; stroke-linecap: butt; stroke-linejoin: miter; stroke-miterlimit: 10; fill: rgb(59,158,65); fill-rule: nonzero; opacity: 1;" transform=" matrix(1 0 0 1 0 0) "/>
	<rect x="0.79" y="71.17" rx="0" ry="0" width="31.92" height="2.65" style="stroke: none; stroke-width: 1; stroke-dasharray: none; stroke-linecap: butt; stroke-linejoin: miter; stroke-miterlimit: 10; fill: rgb(49,139,54); fill-rule: nonzero; opacity: 1;" transform=" matrix(1 0 0 1 0 0) "/>
	<rect x="0.79" y="68.52" rx="0" ry="0" width="31.92" height="2.65" style="stroke: none; stroke-width: 1; stroke-dasharray: none; stroke-linecap: butt; stroke-linejoin: miter; stroke-miterlimit: 10; fill: rgb(59,158,65); fill-rule: nonzero; opacity: 1;" transform=" matrix(1 0 0 1 0 0) "/>
	<rect x="12.02" y="68.52" rx="0" ry="0" width="9.46" height="10.45" style="stroke: none; stroke-width: 1; stroke-dasharray: none; stroke-linecap: butt; stroke-linejoin: miter; stroke-miterlimit: 10; fill: rgb(182,195,187); fill-rule: nonzero; opacity: 1;" transform=" matrix(1 0 0 1 0 0) "/>
	<polygon points="19.89,68.52 19.89,77.9 12.02,77.9 12.02,78.97 21.48,78.97 21.48,68.52 " style="stroke: none; stroke-width: 1; stroke-dasharray: none; stroke-linecap: butt; stroke-linejoin: miter; stroke-miterlimit: 10; fill: rgb(151,166,157); fill-rule: nonzero; opacity: 1;" transform="  matrix(1 0 0 1 0 0) "/>
	<rect x="3.14" y="65.88" rx="0" ry="0" width="31.92" height="2.65" style="stroke: none; stroke-width: 1; stroke-dasharray: none; stroke-linecap: butt; stroke-linejoin: miter; stroke-miterlimit: 10; fill: rgb(49,139,54); fill-rule: nonzero; opacity: 1;" transform=" matrix(1 0 0 1 0 0) "/>
	<rect x="3.14" y="63.23" rx="0" ry="0" width="31.92" height="2.65" style="stroke: none; stroke-width: 1; stroke-dasharray: none; stroke-linecap: butt; stroke-linejoin: miter; stroke-miterlimit: 10; fill: rgb(59,158,65); fill-rule: nonzero; opacity: 1;" transform=" matrix(1 0 0 1 0 0) "/>
	<rect x="3.14" y="60.73" rx="0" ry="0" width="31.92" height="2.65" style="stroke: none; stroke-width: 1; stroke-dasharray: none; stroke-linecap: butt; stroke-linejoin: miter; stroke-miterlimit: 10; fill: rgb(49,139,54); fill-rule: nonzero; opacity: 1;" transform=" matrix(1 0 0 1 0 0) "/>
	<rect x="3.14" y="58.08" rx="0" ry="0" width="31.92" height="2.65" style="stroke: none; stroke-width: 1; stroke-dasharray: none; stroke-linecap: butt; stroke-linejoin: miter; stroke-miterlimit: 10; fill: rgb(59,158,65); fill-rule: nonzero; opacity: 1;" transform=" matrix(1 0 0 1 0 0) "/>
	<rect x="14.37" y="58.08" rx="0" ry="0" width="9.46" height="10.45" style="stroke: none; stroke-width: 1; stroke-dasharray: none; stroke-linecap: butt; stroke-linejoin: miter; stroke-miterlimit: 10; fill: rgb(182,195,187); fill-rule: nonzero; opacity: 1;" transform=" matrix(1 0 0 1 0 0) "/>
	<polygon points="22.24,58.08 22.24,67.47 14.37,67.47 14.37,68.53 23.83,68.53 23.83,58.08 " style="stroke: none; stroke-width: 1; stroke-dasharray: none; stroke-linecap: butt; stroke-linejoin: miter; stroke-miterlimit: 10; fill: rgb(151,166,157); fill-rule: nonzero; opacity: 1;" transform="  matrix(1 0 0 1 0 0) "/>
	<path d="M 47.801 54.192 c -0.461 -0.964 -1.601 -1.41 -2.542 -1.69 c -1.131 -0.337 -1.374 -0.628 -1.426 -0.737 c -0.034 -0.071 -0.019 -0.187 0.035 -0.319 c 0.169 -0.376 0.661 -0.64 1.199 -0.64 c 0.386 0 0.749 0.136 0.986 0.352 c 0.175 0.16 0.431 0.19 0.647 0.093 l 0.566 -0.254 c 0.374 -0.167 0.491 -0.654 0.22 -0.961 c -0.414 -0.468 -0.991 -0.8 -1.645 -0.949 v -0.668 c 0 -0.34 -0.275 -0.615 -0.615 -0.615 h -0.58 c -0.34 0 -0.615 0.275 -0.615 0.615 v 0.74 c -0.815 0.258 -1.485 0.812 -1.825 1.572 c -0.332 0.811 -0.186 1.433 -0.004 1.813 c 0.461 0.964 1.6 1.41 2.542 1.691 c 1.131 0.337 1.375 0.627 1.427 0.737 c 0.034 0.071 0.018 0.187 -0.035 0.319 c -0.169 0.376 -0.662 0.639 -1.199 0.639 c -0.386 0 -0.749 -0.136 -0.986 -0.352 c -0.174 -0.16 -0.431 -0.19 -0.646 -0.093 l -0.566 0.253 c -0.378 0.169 -0.489 0.66 -0.214 0.97 c 0.385 0.434 0.91 0.752 1.507 0.913 v 0.695 c 0 0.34 0.275 0.615 0.615 0.615 h 0.58 c 0.34 0 0.615 -0.275 0.615 -0.615 v -0.695 c 0.876 -0.237 1.598 -0.815 1.957 -1.617 C 48.128 55.193 47.982 54.571 47.801 54.192 z" style="stroke: none; stroke-width: 1; stroke-dasharray: none; stroke-linecap: butt; stroke-linejoin: miter; stroke-miterlimit: 10; fill: rgb(182,195,187); fill-rule: nonzero; opacity: 1;" transform=" matrix(1 0 0 1 0 0) " stroke-linecap="round" />
</g>
</g>
</svg>