<svg xmlns="http://www.w3.org/2000/svg" xmlns:xlink="http://www.w3.org/1999/xlink" version="1.1" width="256" height="256" viewBox="0 0 256 256" xml:space="preserve">
<desc>Created with Fabric.js 1.7.22</desc>
<defs>
</defs>
<g transform="translate(128 128) scale(0.72 0.72)" style="">
	<g style="stroke: none; stroke-width: 0; stroke-dasharray: none; stroke-linecap: butt; stroke-linejoin: miter; stroke-miterlimit: 10; fill: none; fill-rule: nonzero; opacity: 1;" transform="translate(-175.05 -175.05000000000004) scale(3.89 3.89)" >
	<path d="M 53 30.456 c -9.916 0 -19.831 -2.168 -29.677 -6.505 l 2.016 -4.576 c 18.354 8.085 36.969 8.085 55.323 0 l 2.016 4.576 C 72.831 28.288 62.915 30.456 53 30.456 z" style="stroke: none; stroke-width: 1; stroke-dasharray: none; stroke-linecap: butt; stroke-linejoin: miter; stroke-miterlimit: 10; fill: rgb(59,158,65); fill-rule: nonzero; opacity: 1;" transform=" matrix(1 0 0 1 0 0) " stroke-linecap="round" />
	<path d="M 53 35.023 c -10.195 0 -20.387 -0.84 -30.51 -2.522 l 0.819 -4.933 c 19.701 3.274 39.68 3.274 59.381 0 l 0.819 4.933 C 73.389 34.182 63.192 35.023 53 35.023 z" style="stroke: none; stroke-width: 1; stroke-dasharray: none; stroke-linecap: butt; stroke-linejoin: miter; stroke-miterlimit: 10; fill: rgb(49,139,54); fill-rule: nonzero; opacity: 1;" transform=" matrix(1 0 0 1 0 0) " stroke-linecap="round" />
	<rect x="22.9" y="39.53" rx="0" ry="0" width="60.2" height="5" style="stroke: none; stroke-width: 1; stroke-dasharray: none; stroke-linecap: butt; stroke-linejoin: miter; stroke-miterlimit: 10; fill: rgb(49,139,54); fill-rule: nonzero; opacity: 1;" transform=" matrix(1 0 0 1 0 0) "/>
	<rect x="22.9" y="34.53" rx="0" ry="0" width="60.2" height="5" style="stroke: none; stroke-width: 1; stroke-dasharray: none; stroke-linecap: butt; stroke-linejoin: miter; stroke-miterlimit: 10; fill: rgb(59,158,65); fill-rule: nonzero; opacity: 1;" transform=" matrix(1 0 0 1 0 0) "/>
	<rect x="44.07" y="24.82" rx="0" ry="0" width="17.85" height="19.71" style="stroke: none; stroke-width: 1; stroke-dasharray: none; stroke-linecap: butt; stroke-linejoin: miter; stroke-miterlimit: 10; fill: rgb(182,195,187); fill-rule: nonzero; opacity: 1;" transform=" matrix(1 0 0 1 0 0) "/>
	<polygon points="58.93,24.82 58.93,42.53 44.07,42.53 44.07,44.53 61.93,44.53 61.93,24.82 " style="stroke: none; stroke-width: 1; stroke-dasharray: none; stroke-linecap: butt; stroke-linejoin: miter; stroke-miterlimit: 10; fill: rgb(151,166,157); fill-rule: nonzero; opacity: 1;" transform="  matrix(1 0 0 1 0 0) "/>
	<path d="M 89.666 41.441 c 0.877 2.158 -0.023 4.65 -2.102 5.702 c -15.995 8.091 -35.236 22.615 -42.611 22.615 c -0.382 0.029 -0.765 0.042 -1.146 0.042 c -3.338 0 -6.635 -1.03 -9.834 -2.029 c -3.511 -1.097 -7.139 -2.231 -10.735 -1.962 l -8.906 0.664 v -27.34 l 4.856 -0.362 c 3.008 -0.228 5.539 0.76 7.975 1.715 c 2.28 0.893 4.432 1.733 6.906 1.566 l 15.902 -2.426 c 5.707 -0.822 8.847 1.939 10.76 4.469 l 23.778 -5.36 C 86.66 38.258 88.838 39.402 89.666 41.441 L 89.666 41.441 z" style="stroke: none; stroke-width: 1; stroke-dasharray: none; stroke-linecap: butt; stroke-linejoin: miter; stroke-miterlimit: 10; fill: rgb(238,198,179); fill-rule: nonzero; opacity: 1;" transform=" matrix(1 0 0 1 0 0) " stroke-linecap="round" />
	<path d="M 33.575 53.441 c 8.947 1.271 19.698 -2.219 26.27 -6.178 c 1.087 -0.654 1.475 -2.045 0.888 -3.169 l 0 0 C 59.59 47.415 43.075 51.834 33.575 53.441 z" style="stroke: none; stroke-width: 1; stroke-dasharray: none; stroke-linecap: butt; stroke-linejoin: miter; stroke-miterlimit: 10; fill: rgb(205,149,123); fill-rule: nonzero; opacity: 1;" transform=" matrix(1 0 0 1 0 0) " stroke-linecap="round" />
	<path d="M 87.479 43.837 C 70.924 51.929 51.01 66.452 43.377 66.452 c -0.396 0.029 -0.791 0.042 -1.186 0.042 c -3.455 0 -6.867 -1.03 -10.178 -2.029 c -3.634 -1.097 -7.388 -2.231 -11.11 -1.962 l -6.57 0.473 v 3.496 l 8.906 -0.664 c 3.596 -0.268 7.224 0.866 10.735 1.962 c 3.199 0.999 6.496 2.029 9.834 2.029 c 0.381 0 0.763 -0.013 1.146 -0.042 c 7.375 0 26.616 -14.523 42.611 -22.615 c 2.067 -1.046 2.966 -3.516 2.113 -5.666 C 89.279 42.468 88.527 43.325 87.479 43.837 z" style="stroke: none; stroke-width: 1; stroke-dasharray: none; stroke-linecap: butt; stroke-linejoin: miter; stroke-miterlimit: 10; fill: rgb(205,149,123); fill-rule: nonzero; opacity: 1;" transform=" matrix(1 0 0 1 0 0) " stroke-linecap="round" />
	<path d="M 16.1 70.625 H 2.791 C 1.25 70.625 0 69.376 0 67.834 V 34.836 c 0 -1.541 1.25 -2.791 2.791 -2.791 H 16.1 c 1.541 0 2.791 1.25 2.791 2.791 v 32.998 C 18.891 69.376 17.641 70.625 16.1 70.625 z" style="stroke: none; stroke-width: 1; stroke-dasharray: none; stroke-linecap: butt; stroke-linejoin: miter; stroke-miterlimit: 10; fill: rgb(52,57,54); fill-rule: nonzero; opacity: 1;" transform=" matrix(1 0 0 1 0 0) " stroke-linecap="round" />
	<path d="M 16.1 32.045 h -1.372 c 0.012 0.104 0.031 0.205 0.031 0.312 v 32.998 c 0 1.541 -1.25 2.791 -2.791 2.791 H 0.031 c 0.157 1.392 1.325 2.479 2.76 2.479 H 16.1 c 1.541 0 2.791 -1.25 2.791 -2.791 V 34.836 C 18.891 33.295 17.641 32.045 16.1 32.045 z" style="stroke: none; stroke-width: 1; stroke-dasharray: none; stroke-linecap: butt; stroke-linejoin: miter; stroke-miterlimit: 10; fill: rgb(46,50,47); fill-rule: nonzero; opacity: 1;" transform=" matrix(1 0 0 1 0 0) " stroke-linecap="round" />
</g>
</g>
</svg>