<svg xmlns="http://www.w3.org/2000/svg" xmlns:xlink="http://www.w3.org/1999/xlink" version="1.1" width="256" height="256" viewBox="0 0 256 256" xml:space="preserve">
<desc>Created with Fabric.js 1.7.22</desc>
<defs>
</defs>
<g transform="translate(128 128) scale(0.72 0.72)" style="">
	<g style="stroke: none; stroke-width: 0; stroke-dasharray: none; stroke-linecap: butt; stroke-linejoin: miter; stroke-miterlimit: 10; fill: none; fill-rule: nonzero; opacity: 1;" transform="translate(-175.05 -175.05000000000004) scale(3.89 3.89)" >
	<path d="M 63.17 77.557 l -41.922 0 h -1.694 c -1.928 0 -3.464 -1.611 -3.379 -3.537 c 0.376 -8.534 2.718 -11.286 6.956 -15.233 h 18.023 c -0.112 3.923 0.029 6.796 0.653 8.828 c 0.645 2.1 2.632 3.499 4.828 3.499 h 7.639 c 2.398 0 4.342 -1.944 4.342 -4.342 V 39.439 c 0 -2.311 1.873 -4.184 4.184 -4.184 h 6.293 c 2.311 0 4.184 1.873 4.184 4.184 v 0 c 0 2.311 -1.873 4.184 -4.184 4.184 h -2.821 c -1.28 0 -2.166 1.293 -1.689 2.481 c 1.976 4.918 9.013 8.182 9.013 18.311" style="stroke: none; stroke-width: 1; stroke-dasharray: none; stroke-linecap: butt; stroke-linejoin: miter; stroke-miterlimit: 10; fill: rgb(255,194,105); fill-rule: nonzero; opacity: 1;" transform=" matrix(1 0 0 1 0 0) " stroke-linecap="round" />
	<path d="M 43.473 15.557 L 43.473 15.557 c 1.677 0.469 2.87 1.83 3.199 3.432 c 0.303 1.476 0.988 2.846 2.151 3.804 L 63.95 35.255 l -4.846 2.223 L 48.622 31.79 c -1.099 -0.596 -2.464 0.026 -2.733 1.248 l -1.95 8.836 l -10.527 0.663 l 0.399 -2.113 l 4.08 -21.613 C 38.501 16.346 41.027 14.873 43.473 15.557" style="stroke: none; stroke-width: 1; stroke-dasharray: none; stroke-linecap: butt; stroke-linejoin: miter; stroke-miterlimit: 10; fill: rgb(215,204,221); fill-rule: nonzero; opacity: 1;" transform=" matrix(1 0 0 1 0 0) " stroke-linecap="round" />
	<path d="M 84.019 72.495 c 1.928 1.792 3.134 4.35 3.134 7.19 c 0 5.42 -4.394 9.814 -9.814 9.814 c -5.033 0 -9.181 -3.788 -9.748 -8.668" style="stroke: none; stroke-width: 1; stroke-dasharray: none; stroke-linecap: butt; stroke-linejoin: miter; stroke-miterlimit: 10; fill: rgb(84,68,89); fill-rule: nonzero; opacity: 1;" transform=" matrix(1 0 0 1 0 0) " stroke-linecap="round" />
	<path d="M 13.605 50.009 h 25.4 c 1.186 0 2.148 0.962 2.148 2.148 v 6.63 H 17.527 c -3.352 0 -6.07 -2.718 -6.07 -6.07 v -0.56 C 11.457 50.971 12.419 50.009 13.605 50.009 z" style="stroke: none; stroke-width: 1; stroke-dasharray: none; stroke-linecap: butt; stroke-linejoin: miter; stroke-miterlimit: 10; fill: rgb(215,204,221); fill-rule: nonzero; opacity: 1;" transform=" matrix(1 0 0 1 0 0) " stroke-linecap="round" />
	<path d="M 25.436 50.009 H 6.216 c -1.861 0 -3.37 -1.509 -3.37 -3.37 V 28.633 c 0 -1.861 1.509 -3.37 3.37 -3.37 h 19.22 c 1.861 0 3.37 1.509 3.37 3.37 V 46.64 C 28.806 48.501 27.297 50.009 25.436 50.009 z" style="stroke: none; stroke-width: 1; stroke-dasharray: none; stroke-linecap: butt; stroke-linejoin: miter; stroke-miterlimit: 10; fill: rgb(247,102,114); fill-rule: nonzero; opacity: 1;" transform=" matrix(1 0 0 1 0 0) " stroke-linecap="round" />
	<path d="M 41.153 59.287 H 17.527 c -3.623 0 -6.57 -2.947 -6.57 -6.569 v -0.561 c 0 -1.46 1.188 -2.647 2.647 -2.647 h 25.4 c 1.46 0 2.648 1.188 2.648 2.647 v 6.63 C 41.653 59.063 41.43 59.287 41.153 59.287 z M 13.605 50.51 c -0.908 0 -1.647 0.739 -1.647 1.647 v 0.561 c 0 3.071 2.499 5.569 5.57 5.569 h 23.126 v -6.13 c 0 -0.908 -0.739 -1.647 -1.648 -1.647 H 13.605 z" style="stroke: none; stroke-width: 1; stroke-dasharray: none; stroke-linecap: butt; stroke-linejoin: miter; stroke-miterlimit: 10; fill: rgb(0,0,0); fill-rule: nonzero; opacity: 1;" transform=" matrix(1 0 0 1 0 0) " stroke-linecap="round" />
	<path d="M 25.436 50.51 H 6.216 c -2.134 0 -3.87 -1.736 -3.87 -3.87 V 28.632 c 0 -2.134 1.736 -3.87 3.87 -3.87 h 19.22 c 2.134 0 3.87 1.736 3.87 3.87 V 46.64 C 29.306 48.773 27.57 50.51 25.436 50.51 z M 6.216 25.763 c -1.583 0 -2.87 1.287 -2.87 2.87 V 46.64 c 0 1.583 1.287 2.87 2.87 2.87 h 19.22 c 1.583 0 2.87 -1.287 2.87 -2.87 V 28.632 c 0 -1.583 -1.287 -2.87 -2.87 -2.87 H 6.216 z" style="stroke: none; stroke-width: 1; stroke-dasharray: none; stroke-linecap: butt; stroke-linejoin: miter; stroke-miterlimit: 10; fill: rgb(0,0,0); fill-rule: nonzero; opacity: 1;" transform=" matrix(1 0 0 1 0 0) " stroke-linecap="round" />
	<path d="M 43.939 41.874 c -3.875 -0.221 -7.436 -0.606 -10.128 -1.45 l -0.399 2.113 c -0.733 3.881 2.244 7.472 6.194 7.472 h 3.985 c 1.424 0 2.614 1.082 2.751 2.499 l 0.293 18.606 h 9.947 v -0.669 c -0.581 -2.037 -2.119 -3.249 -4.385 -3.834 l 0.217 -20.58 c 0.022 -2.067 -1.601 -3.778 -3.666 -3.866 L 43.939 41.874" style="stroke: none; stroke-width: 1; stroke-dasharray: none; stroke-linecap: butt; stroke-linejoin: miter; stroke-miterlimit: 10; fill: rgb(247,102,114); fill-rule: nonzero; opacity: 1;" transform=" matrix(1 0 0 1 0 0) " stroke-linecap="round" />
	<path d="M 56.581 70.945 c -0.218 0 -0.418 -0.144 -0.48 -0.363 c -0.507 -1.777 -1.824 -2.918 -4.029 -3.486 c -0.223 -0.058 -0.377 -0.26 -0.375 -0.489 l 0.217 -20.58 c 0.02 -1.809 -1.38 -3.285 -3.188 -3.362 l -4.817 -0.292 c -0.146 -0.009 -0.281 -0.081 -0.369 -0.198 c -0.088 -0.117 -0.121 -0.266 -0.089 -0.409 l 1.95 -8.836 c 0.162 -0.736 0.649 -1.339 1.335 -1.652 c 0.686 -0.313 1.46 -0.286 2.124 0.073 l 10.482 5.688 c 0.243 0.132 0.333 0.435 0.201 0.678 c -0.133 0.244 -0.439 0.332 -0.678 0.201 L 48.384 32.23 c -0.384 -0.208 -0.832 -0.224 -1.232 -0.042 c -0.397 0.182 -0.68 0.531 -0.773 0.958 l -1.825 8.265 l 4.224 0.256 c 2.341 0.1 4.161 2.02 4.136 4.371 L 52.7 66.232 c 2.322 0.695 3.789 2.065 4.361 4.076 c 0.076 0.266 -0.078 0.542 -0.344 0.617 C 56.672 70.939 56.626 70.945 56.581 70.945 z" style="stroke: none; stroke-width: 1; stroke-dasharray: none; stroke-linecap: butt; stroke-linejoin: miter; stroke-miterlimit: 10; fill: rgb(0,0,0); fill-rule: nonzero; opacity: 1;" transform=" matrix(1 0 0 1 0 0) " stroke-linecap="round" />
	<path d="M 46.634 71.614 c -0.272 0 -0.496 -0.219 -0.5 -0.492 l -0.293 -18.606 c -0.109 -1.126 -1.078 -2.006 -2.25 -2.006 h -3.984 c -2.032 0 -3.94 -0.897 -5.237 -2.462 s -1.825 -3.607 -1.448 -5.604 l 4.479 -23.727 c 0.334 -1.352 1.164 -2.46 2.342 -3.147 c 1.179 -0.686 2.552 -0.863 3.866 -0.496 c 1.813 0.507 3.175 1.968 3.555 3.813 c 0.305 1.486 0.989 2.703 1.979 3.519 l 15.127 12.463 c 0.213 0.175 0.243 0.491 0.067 0.704 c -0.176 0.215 -0.49 0.243 -0.704 0.068 L 48.505 23.178 c -1.168 -0.962 -1.972 -2.376 -2.323 -4.089 c -0.303 -1.476 -1.393 -2.645 -2.844 -3.051 c -1.052 -0.293 -2.15 -0.153 -3.092 0.397 c -0.943 0.549 -1.607 1.436 -1.87 2.496 L 33.903 42.63 c -0.321 1.703 0.129 3.445 1.235 4.78 c 1.106 1.334 2.734 2.1 4.467 2.1 h 3.984 c 1.69 0 3.087 1.269 3.249 2.95 l 0.295 18.646 c 0.004 0.276 -0.216 0.503 -0.492 0.508 C 46.639 71.614 46.637 71.614 46.634 71.614 z" style="stroke: none; stroke-width: 1; stroke-dasharray: none; stroke-linecap: butt; stroke-linejoin: miter; stroke-miterlimit: 10; fill: rgb(0,0,0); fill-rule: nonzero; opacity: 1;" transform=" matrix(1 0 0 1 0 0) " stroke-linecap="round" />
	<path d="M 50.515 15.967 c -0.276 0 -0.5 -0.224 -0.5 -0.5 s 0.224 -0.5 0.5 -0.5 c 3.199 0 5.803 -2.604 5.803 -5.803 c 0 -0.276 0.224 -0.5 0.5 -0.5 s 0.5 0.224 0.5 0.5 C 57.317 12.916 54.266 15.967 50.515 15.967 z" style="stroke: none; stroke-width: 1; stroke-dasharray: none; stroke-linecap: butt; stroke-linejoin: miter; stroke-miterlimit: 10; fill: rgb(0,0,0); fill-rule: nonzero; opacity: 1;" transform=" matrix(1 0 0 1 0 0) " stroke-linecap="round" />
	<path d="M 40.227 77.556 c 0.163 0.707 0.25 1.444 0.25 2.201 c 0 5.381 -4.362 9.742 -9.742 9.742 s -9.742 -4.362 -9.742 -9.742 c 0 -0.757 0.086 -1.494 0.25 -2.202" style="stroke: none; stroke-width: 1; stroke-dasharray: none; stroke-linecap: butt; stroke-linejoin: miter; stroke-miterlimit: 10; fill: rgb(84,68,89); fill-rule: nonzero; opacity: 1;" transform=" matrix(1 0 0 1 0 0) " stroke-linecap="round" />
	<path d="M 30.735 90 c -5.648 0 -10.243 -4.595 -10.243 -10.242 c 0 -0.781 0.088 -1.56 0.263 -2.314 c 0.063 -0.269 0.331 -0.437 0.6 -0.375 c 0.27 0.063 0.437 0.331 0.375 0.6 c -0.158 0.682 -0.237 1.385 -0.237 2.09 c 0 5.096 4.146 9.242 9.243 9.242 s 9.242 -4.146 9.242 -9.242 c 0 -0.705 -0.08 -1.408 -0.237 -2.089 c -0.062 -0.269 0.106 -0.537 0.375 -0.6 s 0.538 0.105 0.6 0.375 c 0.174 0.755 0.262 1.533 0.262 2.313 C 40.977 85.405 36.382 90 30.735 90 z" style="stroke: none; stroke-width: 1; stroke-dasharray: none; stroke-linecap: butt; stroke-linejoin: miter; stroke-miterlimit: 10; fill: rgb(0,0,0); fill-rule: nonzero; opacity: 1;" transform=" matrix(1 0 0 1 0 0) " stroke-linecap="round" />
	<path d="M 77.594 85.268 c -2.841 0 -5.151 -2.312 -5.151 -5.152 c 0 -0.914 0.242 -1.812 0.7 -2.595 l 0.863 0.506 c -0.369 0.629 -0.563 1.352 -0.563 2.089 c 0 2.29 1.862 4.152 4.151 4.152 c 2.29 0 4.152 -1.862 4.152 -4.152 c 0 -2.118 -1.585 -3.892 -3.688 -4.126 l 0.111 -0.994 c 2.608 0.291 4.576 2.492 4.576 5.12 C 82.746 82.956 80.435 85.268 77.594 85.268 z" style="stroke: none; stroke-width: 1; stroke-dasharray: none; stroke-linecap: butt; stroke-linejoin: miter; stroke-miterlimit: 10; fill: rgb(0,0,0); fill-rule: nonzero; opacity: 1;" transform=" matrix(1 0 0 1 0 0) " stroke-linecap="round" />
	<path d="M 77.339 90 c -5.236 0 -9.641 -3.917 -10.245 -9.111 c -0.031 -0.274 0.165 -0.522 0.439 -0.555 c 0.271 -0.031 0.522 0.164 0.555 0.439 C 68.633 85.463 72.61 89 77.339 89 c 5.136 0 9.314 -4.179 9.314 -9.314 c 0 -2.58 -1.084 -5.067 -2.976 -6.824 c -0.202 -0.188 -0.214 -0.504 -0.025 -0.706 c 0.189 -0.203 0.505 -0.214 0.707 -0.026 c 2.093 1.945 3.294 4.699 3.294 7.557 C 87.653 85.373 83.026 90 77.339 90 z" style="stroke: none; stroke-width: 1; stroke-dasharray: none; stroke-linecap: butt; stroke-linejoin: miter; stroke-miterlimit: 10; fill: rgb(0,0,0); fill-rule: nonzero; opacity: 1;" transform=" matrix(1 0 0 1 0 0) " stroke-linecap="round" />
	<path d="M 86.787 71.092 c -3.123 -6.155 -10.645 -8.612 -16.8 -5.489 c -6.155 3.123 -8.612 10.645 -5.489 16.8 L 86.787 71.092 z" style="stroke: none; stroke-width: 1; stroke-dasharray: none; stroke-linecap: butt; stroke-linejoin: miter; stroke-miterlimit: 10; fill: rgb(215,204,221); fill-rule: nonzero; opacity: 1;" transform=" matrix(1 0 0 1 0 0) " stroke-linecap="round" />
	<path d="M 50.514 17.828 c -4.785 0 -8.664 -3.879 -8.664 -8.664 S 45.729 0.5 50.514 0.5 s 8.664 3.879 8.664 8.664 h -8.664 V 17.828 z" style="stroke: none; stroke-width: 1; stroke-dasharray: none; stroke-linecap: butt; stroke-linejoin: miter; stroke-miterlimit: 10; fill: rgb(247,102,114); fill-rule: nonzero; opacity: 1;" transform=" matrix(1 0 0 1 0 0) " stroke-linecap="round" />
	<path d="M 50.515 18.328 c -5.053 0 -9.164 -4.111 -9.164 -9.164 S 45.461 0 50.515 0 c 5.053 0 9.164 4.111 9.164 9.164 c 0 0.276 -0.224 0.5 -0.5 0.5 h -8.164 v 8.164 C 51.015 18.104 50.791 18.328 50.515 18.328 z M 50.515 1 c -4.502 0 -8.164 3.663 -8.164 8.164 c 0 4.334 3.395 7.89 7.664 8.149 V 9.164 c 0 -0.276 0.224 -0.5 0.5 -0.5 h 8.148 C 58.404 4.395 54.849 1 50.515 1 z" style="stroke: none; stroke-width: 1; stroke-dasharray: none; stroke-linecap: butt; stroke-linejoin: miter; stroke-miterlimit: 10; fill: rgb(0,0,0); fill-rule: nonzero; opacity: 1;" transform=" matrix(1 0 0 1 0 0) " stroke-linecap="round" />
	<path d="M 41.519 42.431 c -2.677 0 -4.233 -0.319 -7.866 -1.533 c -0.262 -0.087 -0.403 -0.371 -0.316 -0.632 c 0.087 -0.262 0.37 -0.405 0.632 -0.316 c 4.472 1.494 5.602 1.585 9.951 1.425 c 0.271 -0.028 0.508 0.205 0.518 0.481 s -0.205 0.508 -0.481 0.518 C 43.025 42.408 42.232 42.431 41.519 42.431 z" style="stroke: none; stroke-width: 1; stroke-dasharray: none; stroke-linecap: butt; stroke-linejoin: miter; stroke-miterlimit: 10; fill: rgb(0,0,0); fill-rule: nonzero; opacity: 1;" transform=" matrix(1 0 0 1 0 0) " stroke-linecap="round" />
	<path d="M 64.498 82.902 c -0.182 0 -0.357 -0.1 -0.446 -0.273 c -3.243 -6.392 -0.682 -14.229 5.709 -17.473 c 3.097 -1.569 6.618 -1.842 9.919 -0.764 c 3.3 1.078 5.982 3.377 7.554 6.473 c 0.125 0.246 0.026 0.548 -0.22 0.673 L 64.725 82.849 C 64.651 82.885 64.574 82.902 64.498 82.902 z M 75.631 64.744 c -1.861 0 -3.709 0.438 -5.417 1.305 c -2.857 1.449 -4.979 3.926 -5.975 6.973 c -0.943 2.887 -0.769 5.958 0.487 8.704 l 21.379 -10.849 c -1.475 -2.635 -3.85 -4.591 -6.736 -5.534 C 78.144 64.942 76.884 64.744 75.631 64.744 z" style="stroke: none; stroke-width: 1; stroke-dasharray: none; stroke-linecap: butt; stroke-linejoin: miter; stroke-miterlimit: 10; fill: rgb(0,0,0); fill-rule: nonzero; opacity: 1;" transform=" matrix(1 0 0 1 0 0) " stroke-linecap="round" />
	<path d="M 63.17 78.058 H 19.554 c -1.068 0 -2.063 -0.425 -2.802 -1.197 c -0.741 -0.774 -1.124 -1.791 -1.077 -2.862 c 0.391 -8.882 2.958 -11.705 7.115 -15.577 c 0.093 -0.086 0.214 -0.134 0.341 -0.134 h 18.023 c 0.135 0 0.265 0.055 0.358 0.151 c 0.094 0.097 0.146 0.228 0.142 0.363 c -0.122 4.237 0.067 6.829 0.631 8.667 c 0.568 1.852 2.357 3.146 4.35 3.146 h 7.64 c 2.119 0 3.843 -1.724 3.843 -3.843 V 39.439 c 0 -2.583 2.101 -4.684 4.684 -4.684 h 6.293 c 2.583 0 4.685 2.101 4.685 4.684 s -2.102 4.685 -4.685 4.685 h -2.821 c -0.445 0 -0.844 0.212 -1.094 0.582 c -0.246 0.365 -0.294 0.807 -0.131 1.213 c 0.632 1.573 1.856 3.028 3.152 4.569 c 2.627 3.123 5.896 7.01 5.896 13.929 c 0 0.276 -0.224 0.5 -0.5 0.5 s -0.5 -0.224 -0.5 -0.5 c 0 -6.555 -3.008 -10.13 -5.661 -13.284 c -1.35 -1.604 -2.624 -3.119 -3.315 -4.841 c -0.285 -0.709 -0.199 -1.511 0.23 -2.146 c 0.432 -0.64 1.15 -1.021 1.922 -1.021 h 2.821 c 2.031 0 3.685 -1.653 3.685 -3.685 c 0 -2.031 -1.653 -3.684 -3.685 -3.684 H 62.8 c -2.031 0 -3.684 1.653 -3.684 3.684 v 27.333 c 0 2.67 -2.173 4.843 -4.843 4.843 h -7.64 c -2.428 0 -4.609 -1.584 -5.306 -3.853 c -0.574 -1.869 -0.783 -4.422 -0.688 -8.475 H 23.327 c -4.001 3.737 -6.283 6.346 -6.653 14.755 c -0.035 0.796 0.249 1.551 0.8 2.127 c 0.549 0.573 1.288 0.889 2.08 0.889 H 63.17 c 0.276 0 0.5 0.224 0.5 0.5 S 63.446 78.058 63.17 78.058 z" style="stroke: none; stroke-width: 1; stroke-dasharray: none; stroke-linecap: butt; stroke-linejoin: miter; stroke-miterlimit: 10; fill: rgb(0,0,0); fill-rule: nonzero; opacity: 1;" transform=" matrix(1 0 0 1 0 0) " stroke-linecap="round" />
	<path d="M 30.735 84.82 c -2.841 0 -5.152 -2.312 -5.152 -5.152 c 0 -0.823 0.189 -1.611 0.562 -2.341 l 0.891 0.455 c -0.3 0.587 -0.452 1.222 -0.452 1.886 c 0 2.29 1.863 4.152 4.152 4.152 s 4.152 -1.862 4.152 -4.152 c 0 -0.664 -0.152 -1.298 -0.452 -1.885 l 0.891 -0.455 c 0.372 0.729 0.561 1.517 0.561 2.34 C 35.887 82.509 33.576 84.82 30.735 84.82 z" style="stroke: none; stroke-width: 1; stroke-dasharray: none; stroke-linecap: butt; stroke-linejoin: miter; stroke-miterlimit: 10; fill: rgb(0,0,0); fill-rule: nonzero; opacity: 1;" transform=" matrix(1 0 0 1 0 0) " stroke-linecap="round" />
</g>
</g>
</svg>